<svg xmlns="http://www.w3.org/2000/svg" width="24" height="24" viewBox="0 0 256 256" version="1.1">
	<path d="M 94.339 35.589 C 87.827 42.514, 82.359 49.014, 82.187 50.036 C 81.901 51.737, 103.382 73.920, 107.660 76.340 C 109.636 77.459, 135.005 52.588, 134.989 49.549 C 134.973 46.748, 111.059 23, 108.254 23 C 106.889 23, 102.121 27.314, 94.339 35.589 M 60.556 69.739 C 45.089 85.433, 45.107 83.644, 60.264 98.765 C 75.164 113.629, 72.862 113.672, 88.264 98.236 C 103.709 82.757, 103.717 85.090, 88.164 69.701 C 72.687 54.387, 75.692 54.382, 60.556 69.739 M 128.917 69.621 C 112.983 85.387, 113.023 83.561, 128.264 98.765 C 143.474 113.938, 141.649 113.981, 157.379 98.083 C 172.460 82.842, 172.522 85.597, 156.744 69.978 C 141.196 54.587, 144.073 54.624, 128.917 69.621 M 195.865 74.750 C 189.411 82.570, 188.196 96.717, 193.033 107.724 L 196.335 115.238 193.918 117.079 C 189.074 120.766, 183.716 121, 104.086 121 L 26.270 121 23.504 123.176 C 17.518 127.884, 24.488 159.184, 33.144 166.467 C 42.366 174.228, 66.283 174.924, 80.314 167.841 C 86.721 164.607, 89.323 164.720, 88.820 168.211 C 87.759 175.567, 63.371 181.287, 48.229 177.731 C 31.107 173.710, 53.208 190.881, 72.261 196.403 C 128.774 212.779, 186.626 186.098, 209.669 133.031 L 212.939 125.500 220.152 124.759 C 239.442 122.777, 257.441 105.179, 245.555 99.921 C 237.506 96.361, 230.994 95.569, 224.733 97.389 C 217.703 99.433, 217 99.410, 217 97.134 C 217 87.660, 200.038 69.695, 195.865 74.750 M 86.322 145.478 C 84.336 147.464, 82.990 149.715, 83.183 150.728 C 83.666 153.263, 87.287 153.445, 89.460 151.044 C 91.809 148.448, 95.174 148.430, 97.500 151 C 99.982 153.742, 104 153.681, 104 150.900 C 104 143.122, 92.275 139.525, 86.322 145.478" stroke="none" fill="currentColor" fill-rule="evenodd"/>
</svg>